<svg width="1391" height="478" viewBox="0 0 1391 478" fill="none" xmlns="http://www.w3.org/2000/svg">
<path d="M229.004 163.003V236.603C229.004 238.07 229.404 239.203 230.204 240.003C231.004 240.67 232.271 241.003 234.004 241.003H238.604V264.003H223.404C212.737 264.003 205.137 261.736 200.604 257.203C196.204 252.67 194.004 246.67 194.004 239.203V160.403C194.004 152.936 196.204 146.936 200.604 142.403C205.137 137.87 212.737 135.603 223.404 135.603H239.404V158.603H234.004C232.271 158.603 231.004 159.003 230.204 159.803C229.404 160.47 229.004 161.536 229.004 163.003ZM281.204 193.003V215.203H236.204V193.003H281.204ZM246.204 179.603V163.003C246.204 161.536 245.804 160.47 245.004 159.803C244.204 159.003 242.937 158.603 241.204 158.603H235.804V135.603H251.804C262.471 135.603 270.004 137.87 274.404 142.403C278.937 146.936 281.204 152.936 281.204 160.403V179.603H246.204ZM246.204 236.603V208.403H281.204V239.203C281.204 246.67 278.937 252.67 274.404 257.203C270.004 261.736 262.471 264.003 251.804 264.003H236.604V241.003H241.204C242.937 241.003 244.204 240.67 245.004 240.003C245.804 239.203 246.204 238.07 246.204 236.603ZM295.199 135.603H330.199V264.003H295.199V135.603ZM366.399 186.803V211.803H310.199V186.803H366.399ZM372.199 135.603V160.603H307.599V135.603H372.199ZM373.999 239.003V264.003H307.599V239.003H373.999ZM402.643 147.603H437.643V264.003H402.643V147.603ZM462.443 135.603V160.603H378.043V135.603H462.443ZM511.41 135.603H546.41V264.003H511.41V135.603ZM620.987 135.603H652.987V264.003H622.987L594.387 196.603V264.003H562.387V135.603H592.387L620.987 204.203V135.603ZM726.666 147.603H761.666V264.003H726.666V147.603ZM786.466 135.603V160.603H702.066V135.603H786.466ZM848.195 189.203V165.003C848.195 163.536 847.795 162.47 846.995 161.803C846.195 161.003 844.928 160.603 843.195 160.603H836.595V135.603H853.795C864.461 135.603 871.995 137.87 876.395 142.403C880.928 146.936 883.195 152.936 883.195 160.403V189.203H848.195ZM848.195 234.603V186.603H883.195V239.203C883.195 246.67 880.928 252.67 876.395 257.203C871.995 261.736 864.461 264.003 853.795 264.003H836.595V239.003H843.195C844.928 239.003 846.195 238.67 846.995 238.003C847.795 237.203 848.195 236.07 848.195 234.603ZM829.795 165.003V189.203H794.795V160.403C794.795 152.936 796.995 146.936 801.395 142.403C805.928 137.87 813.528 135.603 824.195 135.603H841.395V160.603H834.795C833.061 160.603 831.795 161.003 830.995 161.803C830.195 162.47 829.795 163.536 829.795 165.003ZM829.795 186.603V234.603C829.795 236.07 830.195 237.203 830.995 238.003C831.795 238.67 833.061 239.003 834.795 239.003H841.395V264.003H824.195C813.528 264.003 805.928 261.736 801.395 257.203C796.995 252.67 794.795 246.67 794.795 239.203V186.603H829.795ZM951.92 234.603V135.603H986.92V239.203C986.92 246.67 984.653 252.67 980.12 257.203C975.72 261.736 968.186 264.003 957.52 264.003H940.32V239.003H946.92C948.653 239.003 949.92 238.67 950.72 238.003C951.52 237.203 951.92 236.07 951.92 234.603ZM933.52 135.603V234.603C933.52 236.07 933.92 237.203 934.72 238.003C935.52 238.67 936.786 239.003 938.52 239.003H945.12V264.003H927.92C917.253 264.003 909.653 261.736 905.12 257.203C900.72 252.67 898.52 246.67 898.52 239.203V135.603H933.52ZM1037.01 163.003V236.603C1037.01 238.07 1037.41 239.203 1038.21 240.003C1039.01 240.67 1040.28 241.003 1042.01 241.003H1047.21V264.003H1031.41C1020.75 264.003 1013.15 261.736 1008.61 257.203C1004.21 252.67 1002.01 246.67 1002.01 239.203V160.403C1002.01 152.936 1004.21 146.936 1008.61 142.403C1013.15 137.87 1020.75 135.603 1031.41 135.603H1047.21V158.603H1042.01C1040.28 158.603 1039.01 159.003 1038.21 159.803C1037.41 160.47 1037.01 161.536 1037.01 163.003ZM1054.01 183.603V163.003C1054.01 161.536 1053.61 160.47 1052.81 159.803C1052.01 159.003 1050.75 158.603 1049.01 158.603H1043.81V135.603H1059.61C1070.28 135.603 1077.81 137.87 1082.21 142.403C1086.75 146.936 1089.01 152.936 1089.01 160.403V183.603H1054.01ZM1054.01 236.603V216.803H1089.01V239.203C1089.01 246.67 1086.75 252.67 1082.21 257.203C1077.81 261.736 1070.28 264.003 1059.61 264.003H1043.81V241.003H1049.01C1050.75 241.003 1052.01 240.67 1052.81 240.003C1053.61 239.203 1054.01 238.07 1054.01 236.603ZM1166.04 188.203V213.203H1130.04V188.203H1166.04ZM1102.04 135.603H1136.44V264.003H1102.04V135.603ZM1161.64 135.603H1196.04V264.003H1161.64V135.603ZM437.604 322.603H472.604V439.003H437.604V322.603ZM497.404 310.603V335.603H413.004V310.603H497.404ZM559.132 364.203V340.003C559.132 338.536 558.732 337.47 557.932 336.803C557.132 336.003 555.865 335.603 554.132 335.603H547.532V310.603H564.732C575.399 310.603 582.932 312.87 587.332 317.403C591.865 321.936 594.132 327.936 594.132 335.403V364.203H559.132ZM559.132 409.603V361.603H594.132V414.203C594.132 421.67 591.865 427.67 587.332 432.203C582.932 436.736 575.399 439.003 564.732 439.003H547.532V414.003H554.132C555.865 414.003 557.132 413.67 557.932 413.003C558.732 412.203 559.132 411.07 559.132 409.603ZM540.732 340.003V364.203H505.732V335.403C505.732 327.936 507.932 321.936 512.332 317.403C516.865 312.87 524.465 310.603 535.132 310.603H552.332V335.603H545.732C543.999 335.603 542.732 336.003 541.932 336.803C541.132 337.47 540.732 338.536 540.732 340.003ZM540.732 361.603V409.603C540.732 411.07 541.132 412.203 541.932 413.003C542.732 413.67 543.999 414.003 545.732 414.003H552.332V439.003H535.132C524.465 439.003 516.865 436.736 512.332 432.203C507.932 427.67 505.732 421.67 505.732 414.203V361.603H540.732ZM664.857 364.203V338.003C664.857 336.536 664.457 335.47 663.657 334.803C662.857 334.003 661.59 333.603 659.857 333.603H623.057V310.603H670.457C681.124 310.603 688.657 312.87 693.057 317.403C697.59 321.936 699.857 327.936 699.857 335.403V364.203H664.857ZM664.857 411.603V361.603H699.857V414.203C699.857 421.67 697.59 427.67 693.057 432.203C688.657 436.736 681.124 439.003 670.457 439.003H623.057V416.003H659.857C661.59 416.003 662.857 415.67 663.657 415.003C664.457 414.203 664.857 413.07 664.857 411.603ZM611.457 310.603H646.457V439.003H611.457V310.603ZM793.916 395.003V419.803H729.716V395.003H793.916ZM815.916 439.003H780.716L761.516 348.803L741.716 439.003H707.316L740.316 310.603H782.916L815.916 439.003ZM883.91 403.203H853.71L815.91 310.603H851.71L868.51 364.803L884.11 310.603H919.71L883.91 403.203ZM851.31 384.603H886.31V439.003H851.31V384.603ZM929.621 310.603H969.021L963.021 392.403H935.621L929.621 310.603ZM932.021 439.003V406.203H966.421V439.003H932.021Z" fill="white"/>
<path d="M435.215 34.9373V25.6415C435.215 25.014 435.097 24.6021 434.862 24.406C434.666 24.1707 434.234 24.053 433.567 24.053H423.448V18.8756H435.568C437.843 18.8756 439.47 19.3855 440.451 20.4053C441.471 21.4251 441.981 22.8567 441.981 24.7002V35.7022C441.981 37.5457 441.471 38.9773 440.451 39.9971C439.47 41.0169 437.843 41.5268 435.568 41.5268H424.801V36.5259H433.567C434.234 36.5259 434.666 36.4082 434.862 36.1729C435.097 35.9375 435.215 35.5257 435.215 34.9373ZM421.918 18.8756H428.684V56H421.918V18.8756ZM429.861 38.8792H436.627L443.863 56H436.568L429.861 38.8792ZM447.198 18.8756H454.023V56H447.198V18.8756ZM463.143 34.349V39.5852H450.611V34.349H463.143ZM464.849 18.8756V24.053H450.258V18.8756H464.849ZM465.319 50.8226V56H450.258V50.8226H465.319ZM486.03 43.1741V48.2927H472.028V43.1741H486.03ZM491.267 56H484.442L478.853 25.4062L473.616 56H466.851L474.322 18.8756H483.442L491.267 56ZM508.544 33.2311V25.4062C508.544 24.7786 508.427 24.3668 508.191 24.1707C507.995 23.9353 507.564 23.8177 506.897 23.8177H497.601V18.8756H508.956C511.192 18.8756 512.82 19.3855 513.839 20.4053C514.859 21.4251 515.369 22.8567 515.369 24.7002V33.2311H508.544ZM508.544 49.4694V32.0545H515.369V50.1754C515.369 52.0189 514.859 53.4505 513.839 54.4703C512.82 55.4901 511.192 56 508.956 56H497.601V51.0579H506.897C507.564 51.0579 507.995 50.9599 508.191 50.7638C508.427 50.5284 508.544 50.097 508.544 49.4694ZM494.836 18.8756H501.602V56H494.836V18.8756ZM533.213 45.1157H527.094L518.151 18.8756H525.035L530.095 37.9379L534.86 18.8756H541.744L533.213 45.1157ZM526.8 41.4091H533.566V56H526.8V41.4091ZM558.18 20.4641H564.946V56H558.18V20.4641ZM571.476 18.8756V24.053H551.708V18.8756H571.476ZM587.579 41.7033V25.6415C587.579 25.014 587.462 24.6021 587.226 24.406C587.03 24.1707 586.599 24.053 585.932 24.053H583.932V18.8756H587.932C590.207 18.8756 591.835 19.3855 592.816 20.4053C593.835 21.4251 594.345 22.8567 594.345 24.7002V41.7033H587.579ZM587.579 49.2341V39.7029H594.345V50.1754C594.345 52.0189 593.835 53.4505 592.816 54.4703C591.835 55.4901 590.207 56 587.932 56H583.696V50.8226H585.932C586.599 50.8226 587.03 50.7049 587.226 50.4696C587.462 50.2342 587.579 49.8224 587.579 49.2341ZM581.108 25.6415V41.7033H574.342V24.7002C574.342 22.8567 574.852 21.4251 575.871 20.4053C576.891 19.3855 578.519 18.8756 580.755 18.8756H584.755V24.053H582.814C582.147 24.053 581.696 24.1707 581.461 24.406C581.225 24.6021 581.108 25.014 581.108 25.6415ZM581.108 39.4087V49.2341C581.108 49.8224 581.225 50.2342 581.461 50.4696C581.696 50.7049 582.147 50.8226 582.814 50.8226H584.696V56H580.755C578.519 56 576.891 55.4901 575.871 54.4703C574.852 53.4505 574.342 52.0189 574.342 50.1754V39.4087H581.108ZM621.047 49.2341V41.2914C621.047 40.6639 620.929 40.252 620.694 40.0559C620.458 39.8206 620.027 39.7029 619.399 39.7029H614.634C612.437 39.7029 610.868 39.193 609.927 38.1732C609.025 37.1142 608.574 35.663 608.574 33.8195V24.7002C608.574 22.8567 609.064 21.4251 610.045 20.4053C611.025 19.3855 612.653 18.8756 614.928 18.8756H621.4C623.636 18.8756 625.244 19.3855 626.224 20.4053C627.244 21.4251 627.754 22.8567 627.754 24.7002V29.8776H620.929V25.6415C620.929 25.014 620.811 24.6021 620.576 24.406C620.38 24.1707 619.949 24.053 619.282 24.053H617.046C616.379 24.053 615.928 24.1707 615.693 24.406C615.458 24.6021 615.34 25.014 615.34 25.6415V33.1135C615.34 33.7018 615.458 34.1137 615.693 34.349C615.928 34.5843 616.379 34.702 617.046 34.702H621.694C623.93 34.702 625.518 35.2119 626.46 36.2317C627.401 37.2123 627.872 38.6243 627.872 40.4678V50.1754C627.872 52.0189 627.362 53.4505 626.342 54.4703C625.361 55.4901 623.734 56 621.459 56H615.105C612.83 56 611.182 55.4901 610.162 54.4703C609.182 53.4505 608.692 52.0189 608.692 50.1754V45.0568H615.458V49.2341C615.458 49.8224 615.575 50.2342 615.811 50.4696C616.046 50.7049 616.497 50.8226 617.164 50.8226H619.399C620.027 50.8226 620.458 50.7049 620.694 50.4696C620.929 50.2342 621.047 49.8224 621.047 49.2341ZM636.721 20.4641H643.487V56H636.721V20.4641ZM650.018 18.8756V24.053H630.249V18.8756H650.018ZM669.945 43.1741V48.2927H655.942V43.1741H669.945ZM675.181 56H668.356L662.767 25.4062L657.531 56H650.765L658.237 18.8756H667.356L675.181 56ZM692.812 18.8756H698.989V56H692.635L684.693 31.4073V56H678.456V18.8756H684.987L692.812 43.1153V18.8756ZM718.716 33.2311V25.4062C718.716 24.7786 718.598 24.3668 718.363 24.1707C718.167 23.9353 717.735 23.8177 717.068 23.8177H707.773V18.8756H719.128C721.363 18.8756 722.991 19.3855 724.011 20.4053C725.031 21.4251 725.541 22.8567 725.541 24.7002V33.2311H718.716ZM718.716 49.4694V32.0545H725.541V50.1754C725.541 52.0189 725.031 53.4505 724.011 54.4703C722.991 55.4901 721.363 56 719.128 56H707.773V51.0579H717.068C717.735 51.0579 718.167 50.9599 718.363 50.7638C718.598 50.5284 718.716 50.097 718.716 49.4694ZM705.007 18.8756H711.773V56H705.007V18.8756ZM753.453 41.7033V25.6415C753.453 25.014 753.335 24.6021 753.1 24.406C752.904 24.1707 752.472 24.053 751.805 24.053H749.805V18.8756H753.806C756.081 18.8756 757.708 19.3855 758.689 20.4053C759.709 21.4251 760.219 22.8567 760.219 24.7002V41.7033H753.453ZM753.453 49.2341V39.7029H760.219V50.1754C760.219 52.0189 759.709 53.4505 758.689 54.4703C757.708 55.4901 756.081 56 753.806 56H749.57V50.8226H751.805C752.472 50.8226 752.904 50.7049 753.1 50.4696C753.335 50.2342 753.453 49.8224 753.453 49.2341ZM746.981 25.6415V41.7033H740.215V24.7002C740.215 22.8567 740.725 21.4251 741.745 20.4053C742.765 19.3855 744.392 18.8756 746.628 18.8756H750.629V24.053H748.687C748.02 24.053 747.569 24.1707 747.334 24.406C747.099 24.6021 746.981 25.014 746.981 25.6415ZM746.981 39.4087V49.2341C746.981 49.8224 747.099 50.2342 747.334 50.4696C747.569 50.7049 748.02 50.8226 748.687 50.8226H750.57V56H746.628C744.392 56 742.765 55.4901 741.745 54.4703C740.725 53.4505 740.215 52.0189 740.215 50.1754V39.4087H746.981ZM778.852 49.2341V18.8756H785.618V50.1754C785.618 52.0189 785.108 53.4505 784.088 54.4703C783.069 55.4901 781.441 56 779.205 56H774.969V50.8226H777.146C777.813 50.8226 778.264 50.7049 778.499 50.4696C778.735 50.2342 778.852 49.8224 778.852 49.2341ZM772.38 18.8756V49.2341C772.38 49.8224 772.498 50.2342 772.733 50.4696C772.969 50.7049 773.4 50.8226 774.028 50.8226H775.91V56H772.027C769.752 56 768.105 55.4901 767.085 54.4703C766.105 53.4505 765.614 52.0189 765.614 50.1754V18.8756H772.38ZM795.068 20.4641H801.834V56H795.068V20.4641ZM808.364 18.8756V24.053H788.596V18.8756H808.364ZM833.948 41.7033V25.6415C833.948 25.014 833.83 24.6021 833.595 24.406C833.399 24.1707 832.967 24.053 832.3 24.053H830.3V18.8756H834.301C836.576 18.8756 838.203 19.3855 839.184 20.4053C840.204 21.4251 840.714 22.8567 840.714 24.7002V41.7033H833.948ZM833.948 49.2341V39.7029H840.714V50.1754C840.714 52.0189 840.204 53.4505 839.184 54.4703C838.203 55.4901 836.576 56 834.301 56H830.065V50.8226H832.3C832.967 50.8226 833.399 50.7049 833.595 50.4696C833.83 50.2342 833.948 49.8224 833.948 49.2341ZM827.476 25.6415V41.7033H820.71V24.7002C820.71 22.8567 821.22 21.4251 822.24 20.4053C823.259 19.3855 824.887 18.8756 827.123 18.8756H831.124V24.053H829.182C828.515 24.053 828.064 24.1707 827.829 24.406C827.594 24.6021 827.476 25.014 827.476 25.6415ZM827.476 39.4087V49.2341C827.476 49.8224 827.594 50.2342 827.829 50.4696C828.064 50.7049 828.515 50.8226 829.182 50.8226H831.065V56H827.123C824.887 56 823.259 55.4901 822.24 54.4703C821.22 53.4505 820.71 52.0189 820.71 50.1754V39.4087H827.476ZM860.524 18.8756H866.701V56H860.347L852.405 31.4073V56H846.168V18.8756H852.699L860.524 43.1153V18.8756ZM872.425 18.8756H879.191V56H872.425V18.8756ZM875.308 56V50.8226H889.075V56H875.308ZM892.428 18.8756H899.194V56H892.428V18.8756ZM919.53 18.8756H925.708V56H919.354L911.411 31.4073V56H905.175V18.8756H911.705L919.53 43.1153V18.8756ZM931.432 18.8756H938.257V56H931.432V18.8756ZM947.376 34.349V39.5852H934.844V34.349H947.376ZM949.082 18.8756V24.053H934.491V18.8756H949.082ZM949.553 50.8226V56H934.491V50.8226H949.553ZM964.086 33.7607V25.4062C964.086 24.8571 963.988 24.4452 963.792 24.1707C963.596 23.8961 963.184 23.7588 962.557 23.7588H960.615V18.8756H964.498C966.812 18.8756 968.46 19.4051 969.44 20.4641C970.421 21.5231 970.911 22.9155 970.911 24.6413V33.9372C970.911 35.663 970.421 37.0554 969.44 38.1144C968.46 39.1734 966.812 39.7029 964.498 39.7029H960.086V35.408H962.557C963.184 35.408 963.596 35.2903 963.792 35.055C963.988 34.7804 964.086 34.349 964.086 33.7607ZM957.497 35.408H964.38L963.733 43.5271H958.085L957.497 35.408ZM957.261 56V48.0574H964.439V56H957.261ZM958.615 25.4062V29.5834H951.79V24.6413C951.79 22.9155 952.28 21.5231 953.261 20.4641C954.241 19.4051 955.889 18.8756 958.203 18.8756H961.733V23.7588H960.203C959.576 23.7588 959.144 23.8961 958.909 24.1707C958.713 24.4452 958.615 24.8571 958.615 25.4062Z" fill="white"/>
</svg>
