<svg width="312" height="200" viewBox="0 0 312 200" fill="none" xmlns="http://www.w3.org/2000/svg">
<rect x="88" width="135.91" height="135.91" rx="22.6517" fill="white"/>
<path d="M122.974 99.9388H166.193C173.396 99.9388 178.969 94.3665 178.969 87.435C178.969 64.4663 119.712 87.435 119.712 48.4289C119.712 33.7506 131.536 22.1982 145.943 22.1982H190.385V35.6533H145.943C138.875 35.6533 133.167 41.3615 133.167 48.4289C133.167 71.9413 192.424 48.7007 192.424 87.435C192.424 102.113 180.464 113.394 166.193 113.394H122.974V99.9388Z" fill="#0F2C48"/>
<path d="M148.705 40.9955C144.952 40.9955 141.91 44.038 141.91 47.791C141.91 51.5441 144.952 54.5865 148.705 54.5865V40.9955ZM148.705 54.5865H180.421V40.9955H148.705V54.5865Z" fill="#0F2C48"/>
<path d="M164.566 81.0932C168.319 81.0932 171.362 84.1356 171.362 87.8887C171.362 91.6417 168.319 94.6842 164.566 94.6842V81.0932ZM164.566 94.6842H132.851V81.0932H164.566V94.6842Z" fill="#0F2C48"/>
<path d="M1.93875 190.207H27.6272C31.9086 190.207 35.2206 186.895 35.2206 182.775C35.2206 169.123 0 182.775 0 159.591C0 150.866 7.02796 144 15.5908 144H42.0062V151.997H15.5908C11.3901 151.997 7.99734 155.39 7.99734 159.591C7.99734 173.566 43.2179 159.752 43.2179 182.775C43.2179 191.499 36.1092 198.204 27.6272 198.204H1.93875V190.207Z" fill="white"/>
<path d="M86.333 179.059V198.204H78.8204V179.059C78.8204 172.597 73.6504 167.346 67.1879 167.346C60.7254 167.346 55.5554 172.597 55.5554 179.059C55.5554 185.441 60.7254 190.692 67.1879 190.692V198.204C56.6055 198.204 48.0427 189.641 48.0427 179.059C48.0427 168.477 56.6055 159.833 67.1879 159.833C77.7702 159.833 86.333 168.477 86.333 179.059Z" fill="white"/>
<path d="M98.707 149.978V182.775C98.707 187.137 102.181 190.692 106.543 190.692H110.178V198.204H106.543C98.0608 198.204 91.1944 191.257 91.1944 182.775V149.978H98.707Z" fill="white"/>
<path d="M134.002 167.507H122.531V182.937C122.531 187.299 126.005 190.772 130.367 190.772H134.002V198.285H130.367C121.885 198.285 115.019 191.419 115.019 182.937V150.139H122.531V159.995H134.002V167.507Z" fill="white"/>
<path d="M138.843 198.366V176.716C138.843 167.507 146.275 159.995 155.564 159.995H163.239V167.507H155.564C150.475 167.507 146.355 171.627 146.355 176.716V198.366H138.843Z" fill="white"/>
<path d="M172.003 175.666H195.995C194.541 170.415 189.775 166.538 184.04 166.538C178.304 166.538 173.457 170.415 172.003 175.666ZM172.326 183.179C174.023 188.026 178.627 191.499 184.04 191.499C188.16 191.499 191.795 189.48 194.057 186.41H202.539C199.631 193.761 192.441 199.012 184.04 199.012C172.973 199.012 164.087 190.045 164.087 179.059C164.087 167.992 172.973 159.025 184.04 159.025C195.026 159.025 203.993 167.992 203.993 179.059C203.993 180.432 203.831 181.886 203.508 183.179H172.326Z" fill="white"/>
<path d="M208.816 179.059V149.978H216.329V179.059C216.329 185.441 221.499 190.692 227.961 190.692C234.424 190.692 239.594 185.441 239.594 179.059C239.594 172.597 234.424 167.346 227.961 167.346V159.833C238.544 159.833 247.107 168.477 247.107 179.059C247.107 189.641 238.544 198.204 227.961 198.204C217.379 198.204 208.816 189.641 208.816 179.059Z" fill="white"/>
<path d="M259.481 149.978V182.775C259.481 187.137 262.954 190.692 267.316 190.692H270.951V198.204H267.316C258.834 198.204 251.968 191.257 251.968 182.775V149.978H259.481Z" fill="white"/>
<path d="M279.685 175.666H303.677C302.223 170.415 297.457 166.538 291.722 166.538C285.986 166.538 281.139 170.415 279.685 175.666ZM280.008 183.179C281.705 188.026 286.309 191.499 291.722 191.499C295.842 191.499 299.477 189.48 301.739 186.41H310.221C307.313 193.761 300.123 199.012 291.722 199.012C280.655 199.012 271.769 190.045 271.769 179.059C271.769 167.992 280.655 159.025 291.722 159.025C302.708 159.025 311.675 167.992 311.675 179.059C311.675 180.432 311.513 181.886 311.19 183.179H280.008Z" fill="white"/>
<path d="M67.1879 190.692V198.204H72.2992V190.692H67.1879Z" fill="white"/>
<path d="M227.961 167.346V159.833H221.206V167.346H227.961Z" fill="white"/>
</svg>
